<svg xmlns="http://www.w3.org/2000/svg" xmlns:xlink="http://www.w3.org/1999/xlink" width="500" zoomAndPan="magnify" viewBox="0 0 375 374.999991" height="500" preserveAspectRatio="xMidYMid meet" version="1.0"><defs><clipPath id="5782a0ff4b"><path d="M 0 31.023438 L 374.878906 31.023438 L 374.878906 343.773438 L 0 343.773438 Z M 0 31.023438 " clip-rule="nonzero"/></clipPath></defs><g clip-path="url(#5782a0ff4b)"><path fill="#2199ef" d="M 38.089844 109.511719 L 160.851562 109.511719 C 161.828125 105.457031 163.851562 101.480469 166.855469 98.480469 C 170.90625 94.429688 176.910156 92.476562 182.914062 92.476562 C 188.914062 92.476562 193.941406 94.503906 197.996094 98.480469 C 200.996094 101.480469 203.023438 105.535156 203.996094 109.511719 L 281.4375 109.511719 C 282.410156 105.457031 284.4375 101.480469 286.464844 98.480469 C 290.515625 94.429688 296.519531 92.476562 302.519531 92.476562 C 308.523438 92.476562 313.550781 94.503906 317.605469 98.480469 C 321.65625 102.457031 324.65625 108.535156 324.65625 114.539062 C 324.65625 120.539062 321.65625 126.617188 317.605469 130.59375 C 313.550781 134.648438 308.523438 136.597656 302.519531 136.597656 C 296.519531 136.597656 290.441406 134.574219 286.464844 130.59375 C 284.4375 127.59375 282.410156 123.542969 281.4375 119.566406 L 204.074219 119.566406 C 203.097656 123.617188 201.070312 127.59375 198.070312 130.59375 C 194.019531 134.648438 188.992188 136.597656 182.988281 136.597656 C 176.984375 136.597656 170.90625 134.574219 166.929688 130.59375 C 163.929688 127.59375 161.902344 123.542969 160.925781 119.566406 L 41.167969 119.566406 C 36.140625 128.644531 33.140625 137.648438 30.136719 147.703125 L 19.03125 147.703125 C 23.085938 133.597656 28.113281 120.539062 35.089844 109.511719 Z M 170.90625 238.195312 C 176.910156 238.195312 181.9375 241.199219 185.988281 245.25 C 188.992188 247.277344 191.015625 251.253906 191.992188 255.304688 L 281.511719 255.304688 C 282.488281 251.253906 284.511719 247.277344 286.539062 245.25 C 290.589844 241.199219 296.59375 238.195312 302.597656 238.195312 C 308.597656 238.195312 313.625 241.199219 317.679688 245.25 C 321.730469 249.300781 324.730469 254.328125 324.730469 260.332031 C 324.730469 266.335938 321.730469 272.414062 317.679688 276.390625 C 313.625 280.441406 308.597656 282.394531 302.597656 282.394531 C 296.59375 282.394531 290.515625 280.367188 286.539062 276.390625 C 284.511719 273.390625 282.488281 269.335938 281.511719 266.335938 L 191.992188 266.335938 C 191.015625 269.335938 188.992188 273.390625 185.988281 276.390625 C 181.9375 280.441406 176.910156 282.394531 170.90625 282.394531 C 163.851562 282.394531 158.824219 280.367188 154.847656 276.390625 C 151.847656 273.390625 149.820312 269.335938 148.847656 266.335938 L 47.171875 266.335938 C 56.25 280.441406 68.332031 293.5 82.363281 303.554688 C 106.523438 322.6875 137.664062 333.71875 169.855469 333.71875 C 189.964844 333.71875 208.050781 329.664062 226.207031 322.6875 C 243.316406 314.660156 259.375 304.605469 273.480469 290.496094 C 275.507812 288.472656 278.507812 288.472656 280.535156 290.496094 C 282.5625 292.523438 282.5625 296.5 280.535156 298.527344 C 266.429688 312.632812 249.320312 324.714844 230.261719 331.691406 C 211.125 339.722656 191.015625 343.773438 169.929688 343.773438 C 134.738281 343.773438 102.546875 331.691406 76.359375 312.558594 C 56.25 297.476562 40.117188 277.367188 29.085938 255.230469 L 148.769531 255.230469 C 149.746094 251.179688 151.773438 247.203125 154.773438 245.175781 C 158.824219 241.273438 163.851562 238.195312 170.90625 238.195312 Z M 178.9375 252.304688 C 176.910156 250.277344 173.910156 249.300781 170.90625 249.300781 C 166.855469 249.300781 164.902344 250.277344 161.828125 252.304688 C 159.800781 254.328125 158.824219 257.332031 158.824219 260.332031 C 158.824219 263.335938 159.800781 266.335938 161.828125 268.363281 C 164.828125 270.386719 166.855469 272.414062 170.90625 272.414062 C 173.910156 272.414062 176.910156 270.386719 178.9375 268.363281 C 180.960938 266.335938 181.9375 263.335938 181.9375 260.332031 C 181.9375 257.332031 180.960938 254.328125 178.9375 252.304688 Z M 24.058594 189.949219 C 30.0625 190.925781 34.113281 192.949219 38.167969 195.953125 C 40.191406 198.953125 42.21875 203.003906 43.195312 206.980469 L 214.203125 206.980469 C 215.179688 202.929688 217.203125 198.953125 220.207031 195.953125 C 224.257812 191.898438 230.261719 189.949219 236.265625 189.949219 C 242.265625 189.949219 247.292969 191.976562 251.347656 195.953125 C 255.398438 200.003906 258.398438 206.007812 258.398438 212.007812 C 258.398438 218.011719 255.398438 223.039062 251.347656 227.089844 C 247.292969 231.144531 242.265625 234.144531 236.265625 234.144531 C 230.261719 234.144531 224.183594 231.144531 220.207031 227.089844 C 217.203125 225.066406 215.179688 221.089844 214.203125 217.035156 L 43.117188 217.035156 C 42.144531 221.089844 40.117188 225.066406 38.089844 227.089844 C 36.066406 229.117188 34.039062 231.144531 31.039062 232.121094 C 33.0625 236.171875 34.039062 240.148438 36.066406 244.199219 L 25.035156 244.199219 C 23.007812 241.199219 22.035156 237.148438 20.984375 234.144531 C 14.980469 233.167969 9.953125 231.144531 5.902344 227.089844 C 2.898438 223.039062 -0.101562 218.011719 -0.101562 212.007812 C -0.101562 206.007812 2.898438 199.929688 5.902344 195.953125 C 8.902344 193.925781 10.929688 192.949219 13.929688 190.925781 C 13.929688 189.949219 13.929688 187.921875 13.929688 187.921875 C 13.929688 177.867188 14.90625 167.8125 16.929688 157.757812 L 83.339844 157.757812 C 84.3125 153.707031 86.339844 150.707031 89.339844 147.703125 C 93.394531 143.652344 98.421875 140.648438 105.398438 140.648438 C 111.402344 140.648438 116.429688 143.652344 120.480469 147.703125 C 123.484375 150.707031 125.507812 153.707031 126.484375 157.757812 L 331.710938 157.757812 C 332.6875 153.707031 334.710938 150.707031 337.714844 147.703125 C 341.765625 143.652344 346.792969 140.648438 352.796875 140.648438 C 358.800781 140.648438 364.878906 143.652344 368.855469 147.703125 C 372.90625 151.753906 374.855469 156.78125 374.855469 162.785156 C 374.855469 168.789062 372.832031 174.867188 368.855469 178.84375 C 364.800781 182.894531 358.800781 184.847656 352.796875 184.847656 C 346.792969 184.847656 341.765625 182.820312 337.714844 178.84375 C 334.710938 175.84375 332.6875 172.839844 331.710938 168.789062 L 126.636719 168.789062 C 125.660156 172.839844 123.632812 175.84375 120.632812 178.84375 C 116.578125 182.894531 111.550781 184.847656 105.550781 184.847656 C 98.496094 184.847656 93.46875 182.820312 89.492188 178.84375 C 86.492188 175.84375 84.464844 172.839844 83.488281 168.789062 L 26.085938 168.789062 C 25.109375 174.792969 24.058594 180.871094 24.058594 187.921875 C 24.058594 188.972656 24.058594 188.972656 24.058594 189.949219 Z M 30.0625 204.054688 C 28.035156 202.03125 25.035156 200.003906 22.035156 200.003906 C 19.03125 200.003906 16.03125 202.03125 14.003906 204.054688 C 11.980469 206.082031 11.003906 209.082031 11.003906 212.085938 C 11.003906 215.085938 11.980469 218.085938 14.003906 220.113281 C 16.03125 222.140625 19.03125 223.113281 22.035156 223.113281 C 25.035156 223.113281 28.035156 222.140625 30.0625 220.113281 C 32.089844 218.085938 33.0625 215.085938 33.0625 212.085938 C 33.0625 209.082031 32.089844 206.007812 30.0625 204.054688 Z M 113.578125 154.757812 C 111.550781 152.730469 108.550781 151.753906 105.550781 151.753906 C 101.496094 151.753906 98.496094 152.730469 96.46875 154.757812 C 94.445312 156.78125 93.46875 159.785156 93.46875 162.785156 C 93.46875 166.835938 94.445312 168.789062 96.46875 171.867188 C 98.496094 173.890625 101.496094 174.867188 105.550781 174.867188 C 108.550781 174.867188 111.550781 173.890625 113.578125 171.867188 C 115.605469 168.863281 116.578125 166.835938 116.578125 162.785156 C 116.578125 159.785156 115.605469 156.78125 113.578125 154.757812 Z M 41.167969 98.40625 C 47.171875 90.375 53.175781 83.324219 59.25 77.320312 C 88.441406 49.105469 126.636719 31.023438 169.855469 31.023438 C 191.015625 31.023438 211.125 35.074219 230.1875 43.105469 C 249.320312 51.132812 266.429688 62.238281 280.460938 77.320312 C 282.488281 79.347656 282.488281 82.347656 280.460938 84.375 C 278.433594 86.398438 275.433594 86.398438 273.40625 84.375 C 259.300781 71.316406 243.242188 60.210938 226.132812 53.160156 C 208.050781 45.128906 189.890625 42.128906 169.78125 42.128906 C 129.5625 42.128906 93.320312 58.1875 67.207031 84.375 C 62.179688 89.402344 58.125 93.453125 55.125 98.480469 L 41.167969 98.480469 Z M 310.699219 252.304688 C 308.675781 250.277344 305.671875 249.300781 302.671875 249.300781 C 299.671875 249.300781 296.667969 250.277344 294.644531 252.304688 C 292.617188 254.328125 290.589844 257.332031 290.589844 260.332031 C 290.589844 263.335938 292.617188 266.335938 294.644531 268.363281 C 296.667969 270.386719 299.671875 272.414062 302.671875 272.414062 C 305.671875 272.414062 308.675781 270.386719 310.699219 268.363281 C 312.726562 266.335938 313.703125 263.335938 313.703125 260.332031 C 313.703125 257.332031 312.726562 254.328125 310.699219 252.304688 Z M 244.292969 204.054688 C 242.265625 202.03125 239.265625 200.003906 236.265625 200.003906 C 232.210938 200.003906 230.261719 202.03125 228.234375 204.054688 C 225.234375 206.082031 224.183594 209.082031 224.183594 212.085938 C 224.183594 215.085938 225.160156 218.085938 228.234375 220.113281 C 230.261719 222.140625 232.285156 223.113281 236.265625 223.113281 C 239.265625 223.113281 242.265625 222.140625 244.292969 220.113281 C 246.320312 218.085938 247.292969 215.085938 247.292969 212.085938 C 247.371094 209.082031 246.320312 206.007812 244.292969 204.054688 Z M 360.976562 154.757812 C 358.949219 152.730469 356.921875 151.753906 352.945312 151.753906 C 349.945312 151.753906 346.941406 152.730469 344.917969 154.757812 C 342.890625 156.78125 341.914062 159.785156 341.914062 162.785156 C 341.914062 166.835938 342.890625 168.789062 344.917969 171.867188 C 346.941406 173.890625 349.945312 174.867188 352.945312 174.867188 C 357 174.867188 358.949219 173.890625 360.976562 171.867188 C 363.976562 168.863281 365.027344 166.835938 365.027344 162.785156 C 365.027344 159.785156 364.050781 156.78125 360.976562 154.757812 Z M 310.699219 106.433594 C 308.675781 104.40625 305.671875 103.433594 302.671875 103.433594 C 299.671875 103.433594 296.667969 104.40625 294.644531 106.433594 C 292.617188 108.460938 290.589844 111.460938 290.589844 114.460938 C 290.589844 117.464844 292.617188 120.464844 294.644531 122.492188 C 296.667969 124.515625 299.671875 125.492188 302.671875 125.492188 C 305.671875 125.492188 308.675781 124.515625 310.699219 122.492188 C 312.726562 120.464844 313.703125 117.464844 313.703125 114.460938 C 313.703125 111.460938 312.726562 108.460938 310.699219 106.433594 Z M 170.90625 114.539062 C 170.90625 117.539062 172.933594 120.539062 174.957031 122.566406 C 176.984375 124.59375 179.984375 125.566406 182.988281 125.566406 C 185.988281 125.566406 188.992188 124.59375 191.015625 122.566406 C 193.042969 120.539062 194.019531 117.539062 194.019531 114.539062 C 194.019531 111.535156 193.042969 108.535156 191.015625 106.507812 C 188.992188 104.484375 185.988281 103.507812 182.988281 103.507812 C 179.984375 103.507812 176.984375 104.484375 174.957031 106.507812 C 172.933594 108.460938 170.90625 111.460938 170.90625 114.539062 Z M 170.90625 114.539062 " fill-opacity="1" fill-rule="nonzero"/></g></svg>